# xmcd
#
# Track frame offsets: 
#        150
#        23034
#        45416
#        61477
#        86142
#        101616
#        119643
#        136049
#        151479
#        182101
#        204256
#        229287
#        240990
#        267223
#        283022
#        296807
#
# Disc length: 4109 seconds
#
# Revision: 5
# Processed by: cddbd v1.5.2PL0 Copyright (c) Steve Scherf et al.
# Submitted via: ExactAudioCopyFreeDBPlugin 1.0
#
DISCID=e3100b10
DTITLE=Various Artist - 2004風潮精選大碟
DYEAR=2004
DGENRE=New Age
TTITLE0=戲水_(范宗沛與孽子) 
TTITLE1=瑪奇朵飄浮_(飄浮手風琴)
TTITLE2=種一個夢_(赴宴)
TTITLE3=是名…愛_(擁抱愛玫瑰)
TTITLE4=遠方的寂靜_(遠方的寂靜)
TTITLE5=牛車上的陽光_(夏天來了)
TTITLE6=古老的大鐘_(陶笛異想樂園)
TTITLE7=莊子鼓盆_(天地)
TTITLE8=城與海之間_(海洋 漂流)
TTITLE9=福地_(魔境十日)
TTITLE10=探尋_(琵琶相)
TTITLE11=清平調~雲想衣裳_(靜夜思)
TTITLE12=幻境_(空山)
TTITLE13=無量壽佛心咒(藏密調_(大寧靜)
TTITLE14=金剛手菩薩心咒_(歡喜金剛心)
TTITLE15=赤耙耙_(打鑼摃鼓)
EXTD=YEAR: 2004
EXTT0=
EXTT1=
EXTT2=
EXTT3=
EXTT4=
EXTT5=
EXTT6=
EXTT7=
EXTT8=
EXTT9=
EXTT10=
EXTT11=
EXTT12=
EXTT13=
EXTT14=
EXTT15=
PLAYORDER=
